<svg width="153" height="32" fill="none" xmlns="http://www.w3.org/2000/svg"><path fill-rule="evenodd" clip-rule="evenodd" d="M14 30c7.732 0 14-6.268 14-14S21.732 2 14 2 0 8.268 0 16s6.268 14 14 14Zm1.47-7.986c0-2.152-.272-2.776-1.09-4.568l-4.295-9.378H7.036l5.513 11.989v4.81h2.921v-2.853ZM14.41 16.19l3.574-8.122h2.98L17.38 16.19h-2.97Z" fill="#fff"/><path d="M35.5 5.15V26h3.63v-7.44h1.77c4.74 0 7.77-2.19 7.77-6.81 0-4.2-2.82-6.6-7.74-6.6H35.5Zm5.43 10.59h-1.8V7.97h1.92c2.55 0 3.93 1.17 3.93 3.78 0 2.73-1.53 3.99-4.05 3.99Zm13.697.84c.99-1.83 2.46-2.76 4.65-2.64v-3.36c-2.04.12-3.72 1.35-4.56 3.33h-.09l-.09-3h-3.48V26h3.57v-9.42Zm17.436-.87c0-3.66-1.86-5.04-5.64-5.04-2.37 0-4.23.75-5.31 1.38v2.97c.96-.72 3.06-1.5 4.89-1.5 1.71 0 2.49.6 2.49 2.22v.84h-.57c-5.46 0-7.89 1.8-7.89 4.86 0 3.06 1.86 4.77 4.62 4.77 2.1 0 3-.69 3.69-1.41h.15c.03.39.15.9.27 1.2h3.48a37.98 37.98 0 0 1-.18-3.69v-6.6Zm-3.57 6.69c-.45.66-1.29 1.2-2.55 1.2-1.5 0-2.25-.9-2.25-2.25 0-1.77 1.23-2.4 4.29-2.4h.51v3.45Zm12.92 3.9c1.65 0 2.82-.3 3.69-.93v-2.91c-.9.63-1.98 1.02-3.48 1.02-2.55 0-3.6-1.98-3.6-5.1 0-3.27 1.29-4.95 3.63-4.95 1.38 0 2.73.48 3.45.93v-3.03c-.75-.42-2.07-.72-3.84-.72-4.56 0-6.93 3.27-6.93 7.86 0 5.04 2.31 7.83 7.08 7.83Zm4.889-15.39v2.82h1.89v7.74c0 2.82 1.59 4.83 4.89 4.83 1.74 0 2.73-.39 2.73-.39V23s-.66.48-1.86.48c-1.5 0-2.19-.87-2.19-1.98v-7.77h3.75v-2.82h-3.75v-3.3h-3.57v3.3h-1.89Zm13.077-1.86c1.17 0 2.1-.81 2.1-2.1 0-1.26-.93-2.1-2.1-2.1s-2.07.84-2.07 2.1c0 1.29.9 2.1 2.07 2.1Zm-1.77 1.86V26h3.57V10.91h-3.57Zm13.043 15.39c1.65 0 2.82-.3 3.69-.93v-2.91c-.9.63-1.98 1.02-3.48 1.02-2.55 0-3.6-1.98-3.6-5.1 0-3.27 1.29-4.95 3.63-4.95 1.38 0 2.73.48 3.45.93v-3.03c-.75-.42-2.07-.72-3.84-.72-4.56 0-6.93 3.27-6.93 7.86 0 5.04 2.31 7.83 7.08 7.83Zm14.338-4.56c-.66.81-1.71 1.5-3 1.5-1.26 0-1.83-.54-1.83-1.68V10.91h-3.57v11.01c0 3 1.2 4.32 4.11 4.32 2.13 0 3.39-.78 4.11-1.5h.18l.09 1.26h3.48V10.91h-3.57v10.83Zm10.144-6.57c.66-.81 1.56-1.5 2.85-1.5 1.26 0 1.68.54 1.68 1.68V26h3.57V15.17c.66-.81 1.56-1.5 2.85-1.5 1.26 0 1.68.54 1.68 1.68V26h3.57V14.99c0-3-1.05-4.32-3.96-4.32-2.31 0-3.69.9-4.53 1.92-.57-1.32-1.77-1.92-3.72-1.92-2.13 0-3.09.78-3.81 1.5h-.18l-.09-1.26h-3.48V26h3.57V15.17Z" fill="#fff"/></svg>